<svg width="470" height="396" viewBox="0 0 470 396" fill="none" xmlns="http://www.w3.org/2000/svg">
<g clip-path="url(#clip0_1_6)">
<path d="M3.09997 0.179993C10.01 7.35999 18 13.32 25.56 19.77C41.46 33.33 57.5 46.72 73.54 60.11C84.36 69.14 95.29 78.03 106.16 87C107.44 88.05 108.64 89.2 109.87 90.32C111.94 92.2 112.12 93.94 110.22 96.3C97.54 112 88.38 129.55 83.07 149.04C74.27 181.36 77.18 212.79 90.36 243.45C97.88 260.94 108.46 276.35 122.28 289.32C147.18 312.68 176.42 326.83 210.83 329.37C250.61 332.31 285.44 320.35 315.83 294.75C320.68 290.67 325.48 286.6 329.17 281.41C331.73 277.81 334.35 278.68 337.12 281C345.77 288.23 354.43 295.46 363.07 302.72C378.7 315.83 394.31 328.96 409.93 342.08C425.67 355.31 441.41 368.55 457.16 381.76C460.59 384.64 464.11 387.41 467.53 390.3C468.64 391.24 470.13 392.27 469.49 393.98C468.93 395.47 467.27 395.14 465.98 395.23C465.15 395.29 464.32 395.26 463.49 395.26C310.19 395.26 156.89 395.26 3.59997 395.26C2.43997 395.26 1.26997 395.22 0.109973 395.2C0.109973 264.86 0.109973 134.52 0.119973 4.17999C0.119973 2.16999 -0.910028 -0.740007 3.09997 0.199993V0.179993Z" fill="#F6E288"/>
<path fill-rule="evenodd" clip-rule="evenodd" d="M164.38 226.46H138.99V143.2H164.38V148.2C168.83 144.63 171.22 143.29 176.45 141.54C184.43 139.16 194.1 141.63 199.35 144.45C217.89 154.43 216.84 176.13 216.83 204.81C216.97 211.33 216.02 216.2 217.25 224.38C222.27 248.37 245.34 266.39 276.78 258.1C284.16 256.15 288.59 251.27 293.85 247.28C287.03 268.3 256.76 281.49 229.32 271.01C212.68 264.65 200.07 250.45 194.35 233.13C189.6 218.76 197.15 185.06 190.19 173.18C183.68 162.09 170.7 167.53 164.38 174.43V226.47V226.46ZM241.39 193.57C246.56 197.03 281.93 232.12 283.44 236.45L272.2 241.86C252.21 246.61 230.41 227.86 235.15 207.31C236.36 202.07 239.05 197.63 241.39 193.57ZM176.45 141.53C184.43 139.15 194.1 141.62 199.35 144.44C217.89 154.42 216.84 176.12 216.83 204.8C216.97 211.32 217.11 217.84 217.25 224.37C222.27 248.36 245.34 266.38 276.78 258.09C284.16 256.14 288.59 251.26 293.85 247.27C287.03 268.29 256.76 281.48 229.32 271C212.68 264.64 200.07 250.44 194.35 233.12C189.6 218.75 197.15 185.05 190.19 173.17C183.68 162.08 170.7 167.52 164.38 174.42V226.46H138.99V143.2H164.38V148.2M241.39 193.58C246.56 197.04 281.93 232.13 283.44 236.46L272.2 241.87C252.21 246.62 230.41 227.87 235.15 207.32C236.36 202.08 239.05 197.64 241.39 193.58ZM176.45 141.54C184.43 139.16 194.1 141.63 199.35 144.45C217.89 154.43 216.84 176.13 216.83 204.81C216.97 211.33 217.11 217.85 217.25 224.38C222.27 248.37 245.34 266.39 276.78 258.1C284.16 256.15 288.59 251.27 293.85 247.28C287.03 268.3 256.76 281.49 229.32 271.01C212.68 264.65 200.07 250.45 194.35 233.13C189.6 218.76 197.15 185.06 190.19 173.18C183.68 162.09 170.7 167.53 164.38 174.43V226.47H138.99V143.21H164.38V148.21M241.39 193.59C246.56 197.05 281.93 232.14 283.44 236.47L272.2 241.88C252.21 246.63 230.41 227.88 235.15 207.33C236.36 202.09 239.05 197.65 241.39 193.59Z" fill="white"/>
</g>
<defs>
<clipPath id="clip0_1_6">
<rect width="469.65" height="395.26" fill="white"/>
</clipPath>
</defs>
</svg>
