<svg width="24" height="20" viewBox="0 0 24 20" fill="none" xmlns="http://www.w3.org/2000/svg">
<path d="M23.7428 2.59118C22.9939 2.92879 22.1407 3.13749 21.3243 3.27253C21.711 3.20501 22.2635 2.51139 22.4906 2.22903C22.8343 1.79935 23.1167 1.30829 23.2824 0.780402C23.3008 0.737434 23.3131 0.688328 23.2763 0.657636C23.2272 0.639222 23.1904 0.64536 23.1474 0.669913C22.2451 1.15483 21.3059 1.50471 20.3115 1.75638C20.2317 1.7748 20.1703 1.75638 20.1151 1.70728C20.0353 1.6152 19.9555 1.52313 19.8696 1.45561C19.4522 1.09959 19.0041 0.817231 18.4946 0.614669C17.8317 0.344586 17.1012 0.22796 16.383 0.277066C15.6833 0.320034 15.0019 0.516458 14.382 0.841784C13.762 1.16711 13.2096 1.6152 12.7676 2.16151C12.3134 2.72623 11.9758 3.38916 11.8039 4.09505C11.6382 4.7764 11.6505 5.44547 11.7548 6.13295C11.7671 6.24958 11.7548 6.26185 11.6566 6.24958C7.75882 5.66644 4.52396 4.27306 1.90293 1.28374C1.78631 1.15483 1.72492 1.15483 1.63285 1.29601C0.484998 3.01472 1.04357 5.78307 2.47379 7.13962C2.66407 7.32377 2.86049 7.50178 3.07533 7.66751C2.99553 7.68593 2.04411 7.58157 1.1909 7.13962C1.07427 7.06596 1.01902 7.10893 1.00675 7.23783C0.994469 7.42198 1.00675 7.59385 1.03744 7.79641C1.25842 9.53967 2.46765 11.154 4.11884 11.7863C4.31526 11.8661 4.5301 11.9397 4.74493 11.9766C4.3705 12.0625 3.97766 12.1177 2.89733 12.0318C2.76228 12.0072 2.71318 12.0748 2.76228 12.2037C3.57253 14.4196 5.32806 15.0764 6.64165 15.4508C6.81966 15.4815 6.99153 15.4815 7.16954 15.5245C7.15726 15.5429 7.15113 15.5429 7.13885 15.5552C6.70304 16.2181 5.19302 16.7153 4.49326 16.9608C3.21651 17.4089 1.82314 17.6115 0.472722 17.4764C0.257883 17.4457 0.208775 17.4457 0.15353 17.4764C0.0921479 17.5133 0.147396 17.5624 0.214917 17.6237C0.491138 17.8079 0.767359 17.9675 1.04972 18.1209C1.90907 18.5752 2.80525 18.9373 3.73826 19.1951C8.56906 20.5271 14.0137 19.5512 17.6414 15.9419C20.4895 13.1121 21.4901 9.20821 21.4901 5.29815C21.4901 5.14469 21.6681 5.05876 21.7786 4.97896C22.5213 4.42038 23.1597 3.75745 23.7121 3.00858C23.8349 2.84285 23.884 2.69553 23.884 2.63415V2.61574C23.884 2.55435 23.841 2.57277 23.7428 2.61574V2.59118Z" fill="#F6E288"/>
</svg>
