<?xml version="1.0" encoding="UTF-8"?>
<svg id="Calque_1" data-name="Calque 1" xmlns="http://www.w3.org/2000/svg" viewBox="0 0 469.65 395.26">
  <defs>
    <style>
      .cls-1 {
        fill: #f6e288;
      }

      .cls-2 {
        fill: #ffffff;
      }
    </style>
  </defs>
  <path class="cls-1" d="m3.1.18c6.91,7.18,14.9,13.14,22.46,19.59,15.9,13.56,31.94,26.95,47.98,40.34,10.82,9.03,21.75,17.92,32.62,26.89,1.28,1.05,2.48,2.2,3.71,3.32,2.07,1.88,2.25,3.62.35,5.98-12.68,15.7-21.84,33.25-27.15,52.74-8.8,32.32-5.89,63.75,7.29,94.41,7.52,17.49,18.1,32.9,31.92,45.87,24.9,23.36,54.14,37.51,88.55,40.05,39.78,2.94,74.61-9.02,105-34.62,4.85-4.08,9.65-8.15,13.34-13.34,2.56-3.6,5.18-2.73,7.95-.41,8.65,7.23,17.31,14.46,25.95,21.72,15.63,13.11,31.24,26.24,46.86,39.36,15.74,13.23,31.48,26.47,47.23,39.68,3.43,2.88,6.95,5.65,10.37,8.54,1.11.94,2.6,1.97,1.96,3.68-.56,1.49-2.22,1.16-3.51,1.25-.83.06-1.66.03-2.49.03-153.3,0-306.6,0-459.89,0-1.16,0-2.33-.04-3.49-.06,0-130.34,0-260.68.01-391.02,0-2.01-1.03-4.92,2.98-3.98Z"/>
  <path id="Color_Fill_1" data-name="Color Fill 1" class="cls-2" d="m164.38,226.46h-25.39v-83.26h25.39v5c4.45-3.57,6.84-4.91,12.07-6.66,7.98-2.38,17.65.09,22.9,2.91,18.54,9.98,17.49,31.68,17.48,60.36.14,6.52-.81,11.39.42,19.57,5.02,23.99,28.09,42.01,59.53,33.72,7.38-1.95,11.81-6.83,17.07-10.82-6.82,21.02-37.09,34.21-64.53,23.73-16.64-6.36-29.25-20.56-34.97-37.88-4.75-14.37,2.8-48.07-4.16-59.95-6.51-11.09-19.49-5.65-25.81,1.25v52.04Zm77.01-32.89c5.17,3.46,40.54,38.55,42.05,42.88l-11.24,5.41c-19.99,4.75-41.79-14-37.05-34.55,1.21-5.24,3.9-9.68,6.24-13.74Zm-64.94-52.04c7.98-2.38,17.65.09,22.9,2.91,18.54,9.98,17.49,31.68,17.48,60.36.14,6.52.28,13.04.42,19.57,5.02,23.99,28.09,42.01,59.53,33.72,7.38-1.95,11.81-6.83,17.07-10.82-6.82,21.02-37.09,34.21-64.53,23.73-16.64-6.36-29.25-20.56-34.97-37.88-4.75-14.37,2.8-48.07-4.16-59.95-6.51-11.09-19.49-5.65-25.81,1.25v52.04h-25.39v-83.26h25.39v5m77.01,45.38c5.17,3.46,40.54,38.55,42.05,42.88l-11.24,5.41c-19.99,4.75-41.79-14-37.05-34.55,1.21-5.24,3.9-9.68,6.24-13.74Zm-64.94-52.04c7.98-2.38,17.65.09,22.9,2.91,18.54,9.98,17.49,31.68,17.48,60.36.14,6.52.28,13.04.42,19.57,5.02,23.99,28.09,42.01,59.53,33.72,7.38-1.95,11.81-6.83,17.07-10.82-6.82,21.02-37.09,34.21-64.53,23.73-16.64-6.36-29.25-20.56-34.97-37.88-4.75-14.37,2.8-48.07-4.16-59.95-6.51-11.09-19.49-5.65-25.81,1.25v52.04h-25.39v-83.26h25.39v5m77.01,45.38c5.17,3.46,40.54,38.55,42.05,42.88l-11.24,5.41c-19.99,4.75-41.79-14-37.05-34.55,1.21-5.24,3.9-9.68,6.24-13.74Z"/>
</svg>