<svg width="32" height="60" viewBox="0 0 32 60" fill="none" xmlns="http://www.w3.org/2000/svg">
<path d="M14.8083 20.9736L10.4615 38.3703L25.6816 57.9405M8.28803 49.2437L1.76465 57.9374" stroke="white" stroke-width="3" stroke-linecap="round" stroke-linejoin="round"/>
<path d="M1.76465 34.0215C1.76465 21.8453 10.4615 20.9747 14.8114 20.9747H19.1583C19.8838 24.5992 23.0729 32.2834 30.0316 34.0215M16.5372 14.4081C18.1748 14.4081 19.7453 13.7576 20.9032 12.5996C22.0612 11.4417 22.7117 9.87119 22.7117 8.2336C22.7117 6.59602 22.0612 5.0255 20.9032 3.86756C19.7453 2.70961 18.1748 2.05908 16.5372 2.05908C14.8996 2.05908 13.3291 2.70961 12.1711 3.86756C11.0132 5.0255 10.3627 6.59602 10.3627 8.2336C10.3627 9.87119 11.0132 11.4417 12.1711 12.5996C13.3291 13.7576 14.8996 14.4081 16.5372 14.4081Z" stroke="white" stroke-width="3" stroke-linecap="round" stroke-linejoin="round"/>
</svg>
