<svg width="17" height="17" viewBox="0 0 17 17" fill="none" xmlns="http://www.w3.org/2000/svg">
<g clip-path="url(#clip0_294_208)">
<path d="M15.9979 6.12101C15.2853 6.12101 14.5726 6.11765 13.8599 6.12214C13.7455 6.1227 13.713 6.0969 13.7136 5.97691C13.7192 4.94183 13.7141 3.90619 13.7192 2.87111C13.7197 2.73093 13.6822 2.68439 13.537 2.68495C12.5069 2.69112 11.4769 2.68607 10.4469 2.69168C10.3213 2.69224 10.2786 2.66981 10.2803 2.53356C10.2876 1.86799 10.2859 1.20186 10.2814 0.535733C10.2809 0.433122 10.3089 0.403965 10.4115 0.403965C12.2686 0.405647 14.1257 0.403965 15.9834 0.402283C15.9884 0.402283 15.9934 0.403965 15.9991 0.404526V6.12045L15.9979 6.12101Z" fill="white"/>
<path d="M0.00543251 16.3972C0.00543251 14.659 0.00543251 12.9202 0.00543251 11.182C0.00543251 11.0519 0.00543251 10.9219 0.000386072 10.7918C-0.00297822 10.7161 0.0144039 10.6796 0.101875 10.6802C0.799405 10.6835 1.49693 10.6847 2.19446 10.6807C2.32343 10.6802 2.28642 10.766 2.28642 10.8293C2.28754 11.8392 2.2853 12.849 2.28754 13.8589C2.2881 14.1297 2.2354 14.1157 2.54715 14.1157C3.557 14.1157 4.56685 14.1174 5.5767 14.1123C5.69332 14.1118 5.72472 14.1404 5.72416 14.2581C5.71856 14.9713 5.72192 15.684 5.72248 16.3972H0.00543251Z" fill="white"/>
<path d="M10.2821 16.3972C10.2821 15.6896 10.2865 14.9814 10.2798 14.2738C10.2787 14.1404 10.3174 14.1123 10.4447 14.1129C11.4753 14.1179 12.5058 14.1112 13.5364 14.1185C13.6867 14.1196 13.7176 14.0691 13.717 13.934C13.7136 12.9034 13.7181 11.8728 13.7131 10.8422C13.7125 10.7149 13.7422 10.6779 13.874 10.6796C14.5816 10.6863 15.2898 10.6824 15.9974 10.6819C15.9974 12.5457 15.9963 14.4089 16.0002 16.2727C16.0002 16.3798 15.9795 16.4012 15.8724 16.4006C14.0086 16.3967 12.1453 16.3978 10.2815 16.3978L10.2821 16.3972Z" fill="white"/>
<path d="M0.00918174 3.2636C0.00918174 2.36309 0.0114246 1.46314 0.00581745 0.562632C0.00525674 0.431985 0.0428246 0.400024 0.171228 0.400024C1.97168 0.405071 3.77214 0.406753 5.5726 0.402267C5.70436 0.402267 5.72399 0.446003 5.72343 0.56151C5.71838 1.22259 5.71782 1.88312 5.72343 2.5442C5.72455 2.66139 5.69427 2.69167 5.57708 2.69111C4.55209 2.68606 3.52711 2.68774 2.50156 2.68718C2.35839 2.68718 2.28681 2.76157 2.28681 2.91035C2.28681 3.93029 2.284 4.95023 2.28961 5.97017C2.29017 6.09408 2.25765 6.12436 2.13541 6.12324C1.47489 6.11707 0.813808 6.11595 0.152725 6.12324C0.0209568 6.12492 0.00189245 6.07895 0.00245316 5.96456C0.00637817 5.06461 0.00469602 4.1641 0.00469602 3.26416C0.00581745 3.26416 0.00693888 3.26416 0.00862103 3.26416L0.00918174 3.2636Z" fill="white"/>
</g>
<defs>
<clipPath id="clip0_294_208">
<rect width="16.0011" height="16" fill="white" transform="translate(0 0.400024)"/>
</clipPath>
</defs>
</svg>
