<svg width="22" height="20" viewBox="0 0 22 20" fill="none" xmlns="http://www.w3.org/2000/svg">
<path d="M0.266602 1.37875C0.313251 1.29673 0.351185 1.20907 0.407574 1.13423C0.566489 0.920975 0.774616 0.798969 1.0499 0.799994C1.90906 0.802557 2.76874 0.797431 3.62791 0.802557C4.02212 0.804608 4.30304 1.02094 4.39839 1.40387C4.62087 2.29636 4.84335 3.18884 5.04225 4.08697C5.09146 4.30945 5.18732 4.35353 5.39135 4.35353C9.09458 4.34995 12.7978 4.35302 16.501 4.35353C17.7765 4.35353 19.0519 4.34995 20.3273 4.35148C20.9886 4.35251 21.3295 4.78414 21.1777 5.42288C21.0809 5.8299 20.9778 6.23539 20.8773 6.64139C20.3647 8.70883 19.8464 10.7752 19.3441 12.8452C19.2323 13.3051 18.9837 13.627 18.3711 13.6254C14.3952 13.6137 10.4187 13.6193 6.44275 13.6188C5.92192 13.6188 5.66407 13.4178 5.54411 12.917C4.95869 10.4738 4.37378 8.03062 3.78938 5.58743C3.55152 4.59293 3.31315 3.59843 3.08401 2.60137C3.04197 2.41836 2.96918 2.34967 2.77079 2.35582C2.22587 2.37223 1.67992 2.35787 1.13397 2.363C0.745397 2.36659 0.467039 2.20972 0.319402 1.84114C0.3112 1.8191 0.284544 1.80526 0.266602 1.78783C0.266602 1.65147 0.266602 1.51511 0.266602 1.37875ZM12.4656 5.92064C10.2762 5.92064 8.08675 5.92064 5.89731 5.92064C5.81529 5.92064 5.73327 5.92423 5.65176 5.9191C5.52207 5.91039 5.48208 5.95704 5.51848 6.08724C5.57641 6.29588 5.61998 6.50811 5.67022 6.7188C6.08135 8.43918 6.4935 10.1596 6.90206 11.8805C6.93231 12.0071 6.97383 12.0645 7.1266 12.0645C10.6663 12.0583 14.206 12.0589 17.7462 12.0624C17.8826 12.0624 17.9297 12.0199 17.9584 11.8861C18.0446 11.4827 18.1496 11.0828 18.2491 10.6824C18.6264 9.16301 19.0011 7.64307 19.3876 6.1262C19.4358 5.93704 19.3892 5.91705 19.2174 5.91756C16.9665 5.92269 14.7161 5.92115 12.4651 5.92115L12.4656 5.92064Z" fill="#011627"/>
<path d="M14.248 17.3574C14.2516 15.9128 15.423 14.7486 16.8609 14.7501C18.3716 14.7517 19.4912 16.0214 19.4687 17.3814C19.4446 18.825 18.2886 19.9759 16.8373 19.9666C15.4056 19.9579 14.245 18.7876 14.2486 17.3574H14.248ZM15.8198 17.3548C15.8167 17.9253 16.2827 18.4016 16.8476 18.4057C17.4181 18.4098 17.9072 17.9259 17.9067 17.3568C17.9067 16.7986 17.4233 16.3188 16.8604 16.3183C16.2893 16.3183 15.8228 16.7827 15.8193 17.3548H15.8198Z" fill="#011627"/>
<path d="M7.37194 14.7517C8.75245 14.7455 9.99096 15.8446 9.98686 17.3768C9.98327 18.8276 8.80064 19.9738 7.35554 19.9661C5.92121 19.9584 4.77548 18.7927 4.76472 17.3625C4.75446 15.9738 5.91095 14.7399 7.37143 14.7517H7.37194ZM8.41207 17.3584C8.41207 16.7827 7.94968 16.3188 7.37605 16.3177C6.79985 16.3167 6.31439 16.8042 6.32516 17.3727C6.33592 17.9371 6.81933 18.4103 7.38015 18.4052C7.95224 18.3995 8.41309 17.9325 8.41258 17.3584H8.41207Z" fill="#011627"/>
</svg>
