<svg width="49" height="49" viewBox="0 0 49 49" fill="none" xmlns="http://www.w3.org/2000/svg">
<path d="M23.0022 6.93277C22.5425 6.93277 22.1017 7.11538 21.7767 7.44041C21.4516 7.76545 21.269 8.2063 21.269 8.66597C21.269 9.12564 21.4516 9.56648 21.7767 9.89152C22.1017 10.2166 22.5425 10.3992 23.0022 10.3992H26.4686C26.9283 10.3992 27.3691 10.2166 27.6942 9.89152C28.0192 9.56648 28.2018 9.12564 28.2018 8.66597C28.2018 8.2063 28.0192 7.76545 27.6942 7.44041C27.3691 7.11538 26.9283 6.93277 26.4686 6.93277H23.0022ZM19.5358 32.0641C19.5358 32.7536 19.2619 33.4149 18.7744 33.9024C18.2868 34.39 17.6255 34.6639 16.936 34.6639C16.2465 34.6639 15.5853 34.39 15.0977 33.9024C14.6102 33.4149 14.3363 32.7536 14.3363 32.0641C14.3363 31.3746 14.6102 30.7133 15.0977 30.2257C15.5853 29.7382 16.2465 29.4643 16.936 29.4643C17.6255 29.4643 18.2868 29.7382 18.7744 30.2257C19.2619 30.7133 19.5358 31.3746 19.5358 32.0641ZM32.5348 34.6639C33.2243 34.6639 33.8856 34.39 34.3731 33.9024C34.8607 33.4149 35.1346 32.7536 35.1346 32.0641C35.1346 31.3746 34.8607 30.7133 34.3731 30.2257C33.8856 29.7382 33.2243 29.4643 32.5348 29.4643C31.8453 29.4643 31.184 29.7382 30.6965 30.2257C30.2089 30.7133 29.935 31.3746 29.935 32.0641C29.935 32.7536 30.2089 33.4149 30.6965 33.9024C31.184 34.39 31.8453 34.6639 32.5348 34.6639ZM3.93709 10.0525C3.93709 7.38643 4.99619 4.82953 6.88141 2.94432C8.76662 1.0591 11.3235 0 13.9896 0H35.4812C38.1473 0 40.7042 1.0591 42.5894 2.94432C44.4746 4.82953 45.5337 7.38643 45.5337 10.0525V17.3319H47.2669C47.7266 17.3319 48.1674 17.5145 48.4925 17.8396C48.8175 18.1646 49.0001 18.6055 49.0001 19.0651C49.0001 19.5248 48.8175 19.9656 48.4925 20.2907C48.1674 20.6157 47.7266 20.7983 47.2669 20.7983H45.5337V44.0231C45.5337 45.2183 45.059 46.3645 44.2139 47.2095C43.3688 48.0546 42.2226 48.5294 41.0274 48.5294H36.1745C34.9793 48.5294 33.8331 48.0546 32.988 47.2095C32.143 46.3645 31.6682 45.2183 31.6682 44.0231V41.5966H17.8026V44.0231C17.8026 45.2183 17.3279 46.3645 16.4828 47.2095C15.6377 48.0546 14.4915 48.5294 13.2963 48.5294H8.44339C7.24825 48.5294 6.10205 48.0546 5.25696 47.2095C4.41186 46.3645 3.93709 45.2183 3.93709 44.0231V20.7983H2.2039C1.74423 20.7983 1.30338 20.6157 0.978344 20.2907C0.653307 19.9656 0.470703 19.5248 0.470703 19.0651C0.470703 18.6055 0.653307 18.1646 0.978344 17.8396C1.30338 17.5145 1.74423 17.3319 2.2039 17.3319H3.93709V10.0525ZM42.0673 10.0525C42.0673 8.30577 41.3734 6.63056 40.1383 5.39542C38.9032 4.16028 37.228 3.46639 35.4812 3.46639H13.9896C12.2429 3.46639 10.5677 4.16028 9.33251 5.39542C8.09737 6.63056 7.40348 8.30577 7.40348 10.0525V24.2647H42.0673V10.0525ZM35.1346 41.5966V44.0231C35.1346 44.1597 35.1615 44.2949 35.2137 44.4211C35.266 44.5472 35.3426 44.6619 35.4392 44.7584C35.5357 44.855 35.6504 44.9316 35.7765 44.9839C35.9027 45.0361 36.0379 45.063 36.1745 45.063H41.0274C41.164 45.063 41.2992 45.0361 41.4254 44.9839C41.5516 44.9316 41.6662 44.855 41.7628 44.7584C41.8593 44.6619 41.9359 44.5472 41.9882 44.4211C42.0404 44.2949 42.0673 44.1597 42.0673 44.0231V41.5966H35.1346ZM7.40348 41.5966V44.0231C7.40348 44.1597 7.43038 44.2949 7.48264 44.4211C7.5349 44.5472 7.6115 44.6619 7.70806 44.7584C7.80463 44.855 7.91927 44.9316 8.04543 44.9839C8.1716 45.0361 8.30683 45.063 8.44339 45.063H13.2963C13.4329 45.063 13.5681 45.0361 13.6943 44.9839C13.8205 44.9316 13.9351 44.855 14.0317 44.7584C14.1282 44.6619 14.2048 44.5472 14.2571 44.4211C14.3094 44.2949 14.3363 44.1597 14.3363 44.0231V41.5966H7.40348ZM7.40348 38.1303H42.0673V27.7311H7.40348V38.1303Z" fill="#2EC4B6"/>
</svg>
