<svg width="72" height="41" viewBox="0 0 72 41" fill="none" xmlns="http://www.w3.org/2000/svg">
<path d="M67.3727 14.0221H59.1066L46.8097 1.57419C46.4461 1.20482 46.0138 0.911938 45.5379 0.712411C45.062 0.512885 44.5517 0.41066 44.0366 0.411628H12.5492C11.9036 0.411437 11.268 0.572573 10.6988 0.880736C10.1295 1.1889 9.64417 1.63456 9.28589 2.17816L0.986171 14.7792C0.802784 15.0591 0.705321 15.3876 0.706059 15.7235V29.334C0.706059 30.3868 1.11922 31.3965 1.85466 32.141C2.5901 32.8855 3.58756 33.3037 4.62763 33.3037H9.83771C10.2234 35.2267 11.2541 36.9555 12.7549 38.1973C14.2558 39.4391 16.1346 40.1175 18.073 40.1175C20.0114 40.1175 21.8902 39.4391 23.3911 38.1973C24.8919 36.9555 25.9226 35.2267 26.3083 33.3037H45.6921C46.0778 35.2267 47.1084 36.9555 48.6093 38.1973C50.1101 39.4391 51.9889 40.1175 53.9273 40.1175C55.8658 40.1175 57.7446 39.4391 59.2454 38.1973C60.7463 36.9555 61.7769 35.2267 62.1626 33.3037H67.3727C68.4128 33.3037 69.4102 32.8855 70.1457 32.141C70.8811 31.3965 71.2943 30.3868 71.2943 29.334V17.9919C71.2943 16.939 70.8811 15.9293 70.1457 15.1849C69.4102 14.4404 68.4128 14.0221 67.3727 14.0221ZM12.0842 4.06662C12.1353 3.98913 12.2044 3.92557 12.2855 3.88156C12.3666 3.83754 12.4572 3.81443 12.5492 3.81426H44.0366C44.1849 3.81489 44.327 3.87505 44.4315 3.98155L54.3531 14.0221H5.52679L12.0842 4.06662ZM18.073 36.7063C17.0758 36.7063 16.101 36.407 15.2718 35.8462C14.4427 35.2853 13.7964 34.4882 13.4148 33.5556C13.0332 32.623 12.9333 31.5967 13.1279 30.6067C13.3224 29.6166 13.8026 28.7072 14.5078 27.9934C15.2129 27.2796 16.1113 26.7935 17.0894 26.5965C18.0674 26.3996 19.0812 26.5007 20.0025 26.887C20.9238 27.2733 21.7113 27.9275 22.2653 28.7668C22.8193 29.6061 23.115 30.5929 23.115 31.6024C23.115 32.9561 22.5838 34.2543 21.6382 35.2114C20.6927 36.1686 19.4102 36.7063 18.073 36.7063ZM53.9273 36.7063C52.9301 36.7063 51.9553 36.407 51.1262 35.8462C50.297 35.2853 49.6507 34.4882 49.2691 33.5556C48.8875 32.623 48.7877 31.5967 48.9822 30.6067C49.1768 29.6166 49.657 28.7072 50.3621 27.9934C51.0672 27.2796 51.9656 26.7935 52.9437 26.5965C53.9217 26.3996 54.9355 26.5007 55.8568 26.887C56.7781 27.2733 57.5656 27.9275 58.1196 28.7668C58.6736 29.6061 58.9694 30.5929 58.9694 31.6024C58.9694 32.9561 58.4381 34.2543 57.4926 35.2114C56.547 36.1686 55.2646 36.7063 53.9273 36.7063ZM67.9329 29.334C67.9329 29.4844 67.8739 29.6286 67.7689 29.735C67.6638 29.8413 67.5213 29.9011 67.3727 29.9011H62.1626C61.7769 27.9781 60.7463 26.2493 59.2454 25.0075C57.7446 23.7657 55.8658 23.0873 53.9273 23.0873C51.9889 23.0873 50.1101 23.7657 48.6093 25.0075C47.1084 26.2493 46.0778 27.9781 45.6921 29.9011H26.3083C25.9226 27.9781 24.8919 26.2493 23.3911 25.0075C21.8902 23.7657 20.0114 23.0873 18.073 23.0873C16.1346 23.0873 14.2558 23.7657 12.7549 25.0075C11.2541 26.2493 10.2234 27.9781 9.83771 29.9011H4.62763C4.47905 29.9011 4.33655 29.8413 4.23149 29.735C4.12643 29.6286 4.0674 29.4844 4.0674 29.334V17.4248H67.3727C67.5213 17.4248 67.6638 17.4845 67.7689 17.5909C67.8739 17.6972 67.9329 17.8415 67.9329 17.9919V29.334Z" fill="#2EC4B6"/>
</svg>
