<svg width="58" height="50" viewBox="0 0 58 50" fill="none" xmlns="http://www.w3.org/2000/svg">
<path d="M37.9525 14.5833C39.3704 14.5833 40.7565 14.1557 41.9355 13.3545C43.1144 12.5532 44.0333 11.4144 44.5759 10.0821C45.1185 8.74969 45.2605 7.28358 44.9839 5.86914C44.7072 4.45469 44.0245 3.15544 43.0218 2.13568C42.0192 1.11593 40.7418 0.421461 39.3511 0.140111C37.9605 -0.14124 36.519 0.00315935 35.209 0.555048C33.899 1.10694 32.7794 2.04153 31.9916 3.24064C31.2038 4.43974 30.7834 5.84951 30.7834 7.29167C30.7834 9.22554 31.5387 11.0802 32.8832 12.4477C34.2276 13.8151 36.0511 14.5833 37.9525 14.5833ZM37.9525 4.16667C38.5602 4.16667 39.1542 4.34995 39.6595 4.69333C40.1647 5.03671 40.5586 5.52476 40.7911 6.09578C41.0236 6.6668 41.0845 7.29514 40.9659 7.90133C40.8474 8.50752 40.5548 9.06434 40.1251 9.50138C39.6954 9.93842 39.1479 10.236 38.5519 10.3566C37.9559 10.4772 37.3381 10.4153 36.7767 10.1788C36.2153 9.94227 35.7354 9.54173 35.3978 9.02782C35.0602 8.51392 34.88 7.90974 34.88 7.29167C34.88 6.46287 35.2037 5.66801 35.7799 5.08196C36.3561 4.49591 37.1376 4.16667 37.9525 4.16667ZM47.1699 29.1667C45.1443 29.1667 43.1642 29.7776 41.48 30.9222C39.7958 32.0668 38.4831 33.6936 37.7079 35.597C36.9328 37.5004 36.73 39.5949 37.1251 41.6155C37.5203 43.6362 38.4957 45.4922 39.928 46.949C41.3603 48.4058 43.1852 49.3979 45.1719 49.7998C47.1586 50.2018 49.2178 49.9955 51.0892 49.2071C52.9606 48.4187 54.5602 47.0835 55.6855 45.3705C56.8109 43.6575 57.4115 41.6436 57.4115 39.5833C57.4115 36.8207 56.3325 34.1711 54.4118 32.2176C52.4912 30.2641 49.8862 29.1667 47.1699 29.1667ZM47.1699 45.8333C45.9546 45.8333 44.7665 45.4668 43.756 44.78C42.7454 44.0933 41.9578 43.1171 41.4927 41.9751C41.0276 40.8331 40.9059 39.5764 41.1431 38.364C41.3802 37.1516 41.9654 36.038 42.8248 35.1639C43.6842 34.2898 44.7791 33.6946 45.9711 33.4534C47.1631 33.2123 48.3987 33.336 49.5215 33.8091C50.6444 34.2821 51.6041 35.0832 52.2793 36.111C52.9545 37.1388 53.3149 38.3472 53.3149 39.5833C53.3149 41.2409 52.6675 42.8306 51.5151 44.0027C50.3627 45.1748 48.7997 45.8333 47.1699 45.8333ZM10.3002 29.1667C8.2746 29.1667 6.29449 29.7776 4.61027 30.9222C2.92605 32.0668 1.61336 33.6936 0.838193 35.597C0.0630313 37.5004 -0.139786 39.5949 0.255388 41.6155C0.650562 43.6362 1.62598 45.4922 3.05829 46.949C4.49061 48.4058 6.31548 49.3979 8.30216 49.7998C10.2888 50.2018 12.3481 49.9955 14.2195 49.2071C16.0909 48.4187 17.6904 47.0835 18.8158 45.3705C19.9411 43.6575 20.5418 41.6436 20.5418 39.5833C20.5418 38.2154 20.2769 36.8609 19.7622 35.597C19.2475 34.3332 18.4931 33.1849 17.5421 32.2176C16.5911 31.2504 15.4621 30.4831 14.2195 29.9596C12.9769 29.4361 11.6451 29.1667 10.3002 29.1667ZM10.3002 45.8333C9.08484 45.8333 7.89677 45.4668 6.88624 44.78C5.87571 44.0933 5.08809 43.1171 4.62299 41.9751C4.1579 40.8331 4.03621 39.5764 4.27331 38.364C4.51042 37.1516 5.09567 36.038 5.95505 35.1639C6.81444 34.2898 7.90937 33.6946 9.10137 33.4534C10.2934 33.2123 11.5289 33.336 12.6518 33.8091C13.7746 34.2821 14.7343 35.0832 15.4095 36.111C16.0848 37.1388 16.4452 38.3472 16.4452 39.5833C16.4452 41.2409 15.7977 42.8306 14.6453 44.0027C13.4929 45.1748 11.9299 45.8333 10.3002 45.8333ZM45.1216 25H34.88C34.611 25.0002 34.3445 24.9465 34.0958 24.8419C33.8472 24.7374 33.6212 24.584 33.4308 24.3906L26.6867 17.5286L21.3893 22.9167L30.1843 31.8594C30.3744 32.053 30.5252 32.2828 30.628 32.5357C30.7308 32.7886 30.7836 33.0597 30.7834 33.3333V45.8333C30.7834 46.3859 30.5676 46.9158 30.1834 47.3065C29.7993 47.6972 29.2783 47.9167 28.7351 47.9167C28.1918 47.9167 27.6708 47.6972 27.2867 47.3065C26.9025 46.9158 26.6867 46.3859 26.6867 45.8333V34.1953L17.0443 24.3906C16.8538 24.1971 16.7028 23.9674 16.5997 23.7145C16.4966 23.4615 16.4435 23.1904 16.4435 22.9167C16.4435 22.6429 16.4966 22.3718 16.5997 22.1189C16.7028 21.866 16.8538 21.6362 17.0443 21.4427L25.2376 13.1094C25.4278 12.9157 25.6537 12.762 25.9024 12.6572C26.151 12.5523 26.4176 12.4984 26.6867 12.4984C26.9559 12.4984 27.2225 12.5523 27.4711 12.6572C27.7198 12.762 27.9457 12.9157 28.1359 13.1094L35.7275 20.8333H45.1216C45.6649 20.8333 46.1859 21.0528 46.57 21.4435C46.9541 21.8342 47.1699 22.3641 47.1699 22.9167C47.1699 23.4692 46.9541 23.9991 46.57 24.3898C46.1859 24.7805 45.6649 25 45.1216 25Z" fill="#2EC4B6"/>
</svg>
