<svg width="36" height="36" viewBox="0 0 36 36" fill="none" xmlns="http://www.w3.org/2000/svg">
<g clip-path="url(#clip0_294_192)">
<path d="M9 20.2351C9.67031 19.5701 10.3424 18.9069 11.0101 18.2392C14.0637 15.1873 17.1165 12.1349 20.1654 9.07769C20.2836 8.95942 20.3291 8.98634 20.4306 9.0896C21.0841 9.7555 21.7439 10.4157 22.408 11.0705C22.5095 11.1707 22.5055 11.225 22.4045 11.315C22.0479 11.6332 21.7655 11.9959 21.6949 12.4919C21.6084 13.1022 21.9288 13.7893 22.4499 14.0814C23.0779 14.4331 23.783 14.3925 24.2901 13.9676C24.4428 13.8396 24.5848 13.6984 24.723 13.5554C24.79 13.4861 24.8302 13.4945 24.8929 13.5572C25.5799 14.2478 26.267 14.9384 26.9603 15.6228C27.0693 15.7305 26.9797 15.7689 26.9232 15.8249C25.8399 16.9083 24.7556 17.9908 23.6723 19.0737C21.0863 21.6592 18.5004 24.2455 15.9154 26.8319C15.8624 26.8853 15.8148 26.944 15.7645 27H15.7291C15.6912 26.9563 15.6563 26.91 15.6157 26.869C14.952 26.2044 14.2892 25.5389 13.6216 24.8783C13.5355 24.7932 13.5267 24.7459 13.6189 24.6586C13.8312 24.4573 14.0404 24.2539 14.1798 23.9869C14.4755 23.4216 14.4026 22.7372 13.9777 22.213C13.596 21.7417 12.9111 21.5378 12.3264 21.6971C11.9072 21.811 11.612 22.0876 11.33 22.3886C11.2558 22.4676 11.2122 22.4711 11.1358 22.3912C10.9297 22.1741 10.7153 21.965 10.5026 21.7545C10.0026 21.2593 9.50086 20.7651 9 20.2704C9 20.2585 9 20.247 9 20.2351ZM12.7342 20.5789C13.8268 20.6155 14.6542 21.0965 15.1444 22.0837C15.565 22.9301 15.512 23.78 15.0487 24.6016C14.994 24.6983 14.9891 24.7565 15.0787 24.8373C15.2654 25.0067 15.4458 25.1846 15.6131 25.373C15.7172 25.4904 15.7742 25.4838 15.8845 25.373C18.1333 23.1163 20.3869 20.8635 22.6397 18.6108C23.569 17.6814 24.4979 16.7512 25.4312 15.8258C25.5239 15.7336 25.5323 15.6846 25.4312 15.5941C25.2565 15.4379 25.0866 15.2733 24.9343 15.0959C24.8161 14.9582 24.7256 14.9587 24.5698 15.0474C23.4247 15.6961 21.9283 15.3779 21.1605 14.3118C20.4827 13.3709 20.4377 12.3772 20.9901 11.3591C21.0422 11.2634 21.0572 11.2073 20.9646 11.1244C20.781 10.9602 20.6053 10.7855 20.4421 10.6014C20.3322 10.4774 20.2682 10.4739 20.1455 10.5975C18.5812 12.1711 17.0106 13.7381 15.4419 15.3073C13.8316 16.918 12.2223 18.5296 10.6098 20.1376C10.5277 20.2192 10.5052 20.2665 10.6023 20.3556C10.8004 20.5387 10.9915 20.7302 11.1738 20.9293C11.2532 21.0162 11.3092 21.0038 11.3966 20.9513C11.8066 20.7047 12.2518 20.5789 12.735 20.578L12.7342 20.5789Z" fill="#F6E288"/>
<path d="M20.2736 16.4718C20.2467 16.501 20.2237 16.5266 20.1999 16.5508C20.0049 16.7463 19.808 16.9396 19.6156 17.1373C19.5618 17.1925 19.5278 17.2154 19.463 17.1475C19.2639 16.9401 19.0605 16.7366 18.8535 16.5372C18.7896 16.4754 18.7979 16.4414 18.8575 16.384C19.0605 16.1885 19.2578 15.9873 19.4568 15.7883C19.4943 15.7508 19.5261 15.7027 19.5848 15.7623C19.7992 15.9794 20.0154 16.1952 20.2304 16.4118C20.2462 16.4277 20.2568 16.4485 20.2736 16.4723V16.4718Z" fill="#F6E288"/>
<path d="M18.0356 15.7027C18.0065 15.6793 17.9774 15.6599 17.9531 15.6356C17.7585 15.441 17.5683 15.2415 17.3693 15.0518C17.2934 14.9794 17.3044 14.9375 17.3737 14.8708C17.5723 14.6802 17.766 14.4843 17.9571 14.2861C18.0144 14.2266 18.0502 14.2222 18.1102 14.2844C18.3052 14.4869 18.506 14.6837 18.7042 14.8832C18.7452 14.9242 18.7973 14.9591 18.7298 15.0253C18.5162 15.2345 18.3066 15.4472 18.0948 15.6577C18.0784 15.674 18.0581 15.6859 18.0361 15.7027H18.0356Z" fill="#F6E288"/>
<path d="M21.7793 17.9669C21.755 17.996 21.7373 18.0194 21.717 18.0402C21.5185 18.2396 21.3168 18.4364 21.1213 18.639C21.0578 18.7047 21.0176 18.7052 20.9532 18.6381C20.7625 18.4391 20.5662 18.2454 20.3693 18.0525C20.3093 17.9938 20.2895 17.9515 20.3618 17.8817C20.5609 17.6915 20.755 17.4952 20.9465 17.297C21.0074 17.2339 21.0485 17.2207 21.116 17.2909C21.315 17.4978 21.5211 17.6986 21.7241 17.902C21.7435 17.9215 21.7603 17.944 21.7793 17.966V17.9669Z" fill="#F6E288"/>
</g>
<defs>
<clipPath id="clip0_294_192">
<rect width="18.0124" height="18" fill="white" transform="translate(9 9)"/>
</clipPath>
</defs>
</svg>
