<svg width="53" height="50" viewBox="0 0 53 50" fill="none" xmlns="http://www.w3.org/2000/svg">
<path d="M52.445 49.9794C45.0235 49.9794 37.602 49.9794 30.1806 49.9931C29.7032 49.9931 29.7135 49.7733 29.7135 49.4402C29.7169 41.6787 29.7169 33.9138 29.7135 26.1524C29.7135 23.7999 29.6757 21.444 29.923 19.0984C30.4278 14.287 31.7809 9.80525 35.0538 6.0928C37.7669 3.01913 41.1908 1.19553 45.1986 0.426249C46.5208 0.172113 47.8568 0.0484792 49.203 0.00383365C49.5842 -0.00990344 49.7216 0.0725191 49.7216 0.498369C49.7078 4.25203 49.7216 8.00569 49.7422 11.7594C49.7422 12.1474 49.5911 12.1989 49.2614 12.1955C47.7743 12.1852 46.3422 12.3947 45.0956 13.3048C43.7631 14.2801 43.0763 15.6676 42.6195 17.1924C42.0631 19.0641 41.9292 20.9975 41.8983 22.9379C41.8777 24.2326 41.9052 25.5308 41.888 26.8289C41.8846 27.1518 41.9635 27.272 42.307 27.2685C45.6863 27.2514 49.0622 27.2514 52.4415 27.2479V49.9794H52.445Z" fill="#F6E288"/>
<path d="M0.0171714 35.552C0.0171714 31.424 0.0171714 27.2926 0.0171714 23.1646C0.0171714 19.8196 0.336559 16.5124 1.35654 13.3082C2.84358 8.63075 5.52918 4.88395 9.86667 2.43875C11.7967 1.35352 13.8676 0.6701 16.0518 0.323238C17.2126 0.134353 18.3802 0.0278905 19.5582 0.000416298C19.8776 -0.00645225 19.9943 0.0691018 19.9909 0.419398C19.9772 4.2074 19.9806 7.99541 19.9909 11.7834C19.9909 12.0959 19.905 12.199 19.5891 12.1921C18.6653 12.168 17.7518 12.2505 16.8692 12.5389C15.1074 13.1159 14.0118 14.3832 13.3147 16.0419C12.4836 18.02 12.2604 20.1115 12.2054 22.2236C12.1642 23.7244 12.2054 25.2252 12.1814 26.7294C12.1745 27.1484 12.281 27.2754 12.7137 27.2754C15.8698 27.2582 19.0259 27.2754 22.182 27.2548C22.6387 27.2548 22.7452 27.375 22.7452 27.8215C22.7315 35.0403 22.7315 42.2557 22.7452 49.4746C22.7452 49.9176 22.6078 49.9966 22.1991 49.9966C14.9803 49.9828 7.76489 49.9828 0.546049 50C0.0652512 50 0 49.842 0 49.4265C0.0137371 44.8039 0.00686855 40.178 0.00686855 35.5555C0.00686855 35.5555 0.0103028 35.5555 0.0137371 35.5555L0.0171714 35.552Z" fill="#F6E288"/>
</svg>
