<svg width="24" height="24" viewBox="0 0 24 24" fill="none" xmlns="http://www.w3.org/2000/svg">
<path d="M19.6669 5.65312C19.6669 6.41426 19.0531 7.02808 18.292 7.02808C17.5308 7.02808 16.917 6.40812 16.917 5.65312C16.917 4.89811 17.537 4.27815 18.292 4.27815C19.047 4.27815 19.6669 4.89811 19.6669 5.65312ZM17.9544 11.8282C17.9544 15.0201 15.3579 17.6166 12.166 17.6166C8.97411 17.6166 6.37763 15.0201 6.37763 11.8282C6.37763 8.6363 8.97411 6.03983 12.166 6.03983C15.3579 6.03983 17.9544 8.6363 17.9544 11.8282ZM15.8735 11.8282C15.8735 9.78415 14.21 8.12069 12.166 8.12069C10.122 8.12069 8.45851 9.78415 8.45851 11.8282C8.45851 13.8722 10.122 15.5357 12.166 15.5357C14.21 15.5357 15.8735 13.8722 15.8735 11.8282ZM23.8778 7.18154C23.8778 3.28375 20.7166 0.122559 16.8188 0.122559H7.18789C3.2901 0.122559 0.128906 3.28375 0.128906 7.18154V16.8124C0.128906 20.7102 3.2901 23.8714 7.18789 23.8714H16.8188C20.7166 23.8714 23.8778 20.7102 23.8778 16.8124V7.18154ZM21.5575 16.7081C21.5575 19.3844 19.3846 21.5573 16.7083 21.5573H7.2861C4.60983 21.5573 2.43688 19.3844 2.43688 16.7081V7.28589C2.43688 4.60961 4.60983 2.43668 7.2861 2.43668H16.7083C19.3846 2.43668 21.5575 4.60961 21.5575 7.28589V16.7081Z" fill="#F6E288"/>
</svg>
