<svg width="12" height="24" viewBox="0 0 12 24" fill="none" xmlns="http://www.w3.org/2000/svg">
<path fill-rule="evenodd" clip-rule="evenodd" d="M2.97392 12.092V23.3434C2.97392 23.503 3.10283 23.638 3.26856 23.638H7.4487C7.6083 23.638 7.74334 23.5091 7.74334 23.3434V11.9079H10.7756C10.9291 11.9079 11.0519 11.7912 11.0703 11.6378L11.3588 8.19422C11.371 8.02234 11.236 7.87503 11.0641 7.87503H7.74334V5.43201C7.74334 4.86115 8.20985 4.39464 8.7807 4.39464H11.1132C11.2728 4.39464 11.4079 4.26574 11.4079 4.10001V0.656452C11.4079 0.496857 11.279 0.361816 11.1132 0.361816H7.16634C4.85223 0.361816 2.97392 2.24012 2.97392 4.55424V7.87503H0.886921C0.727326 7.87503 0.592285 8.00393 0.592285 8.16966V11.6132C0.592285 11.7728 0.721188 11.9079 0.886921 11.9079H2.97392V12.092Z" fill="#F6E288"/>
</svg>
