<svg width="349" height="553" viewBox="0 0 349 553" fill="none" xmlns="http://www.w3.org/2000/svg">
<mask id="path-1-inside-1_74_2088" fill="white">
<path fill-rule="evenodd" clip-rule="evenodd" d="M349 204C349 396.747 192.748 553 0.000244141 553L0.000183105 308.7C57.8244 308.7 104.7 261.824 104.7 204C104.7 146.176 57.8244 99.3 0.000183105 99.3L0.000244141 -145C192.748 -145 349 11.2526 349 204Z"/>
</mask>
<path d="M0.000244141 553H-9.99976V563H0.000244141V553ZM0.000183105 308.7V298.7H-9.99982V308.7H0.000183105ZM0.000183105 99.3H-9.99982V109.3H0.000183105V99.3ZM0.000244141 -145V-155H-9.99976V-145L0.000244141 -145ZM0.000244141 563C198.27 563 359 402.27 359 204H339C339 391.225 187.225 543 0.000244141 543V563ZM-9.99982 308.7L-9.99976 553H10.0002L10.0002 308.7H-9.99982ZM94.7002 204C94.7002 256.301 52.3015 298.7 0.000183105 298.7V318.7C63.3473 318.7 114.7 267.347 114.7 204H94.7002ZM0.000183105 109.3C52.3015 109.3 94.7002 151.699 94.7002 204H114.7C114.7 140.653 63.3473 89.3 0.000183105 89.3V109.3ZM-9.99976 -145L-9.99982 99.3H10.0002L10.0002 -145L-9.99976 -145ZM359 204C359 5.72978 198.27 -155 0.000244141 -155V-135C187.225 -135 339 16.7755 339 204H359Z" fill="#2EC4B6" mask="url(#path-1-inside-1_74_2088)"/>
</svg>
